HIERARCHY
ROOT Hips
{
    OFFSET   0.000000   0.000000   0.000000
    CHANNELS 6 Xposition Yposition Zposition Zrotation Xrotation Yrotation
    JOINT Chest
    {
        OFFSET   0.000000   8.007230   0.000000
        CHANNELS 3 Zrotation Xrotation Yrotation
        JOINT Chest2
        {
            OFFSET   0.000000  22.077100   0.000000
            CHANNELS 3 Zrotation Xrotation Yrotation
            JOINT Neck
            {
                OFFSET   0.000000  23.255100   0.000000
                CHANNELS 3 Zrotation Xrotation Yrotation
                JOINT Head
                {
                    OFFSET   0.000000  14.370100   1.956600
                    CHANNELS 3 Zrotation Xrotation Yrotation
                    End Site
                    {
                        OFFSET   0.000000  19.566000   0.000000
                    }
                }
            }
            JOINT LeftCollar
            {
                OFFSET   3.911900  19.017000  -0.467063
                CHANNELS 3 Zrotation Xrotation Yrotation
                JOINT LeftShoulder
                {
                    OFFSET  10.383700   0.000000   0.000000
                    CHANNELS 3 Zrotation Xrotation Yrotation
                    JOINT LeftElbow
                    {
                        OFFSET  26.662100   0.001193   0.000980
                        CHANNELS 3 Zrotation Xrotation Yrotation
                        JOINT LeftWrist
                        {
                            OFFSET  28.869000  -0.000059  -0.000082
                            CHANNELS 3 Zrotation Xrotation Yrotation
                            JOINT LeftFinger0
                            {
                                OFFSET   2.044650  -2.323450   3.252850
                                CHANNELS 3 Zrotation Xrotation Yrotation
                                JOINT LeftFinger01
                                {
                                    OFFSET   3.088130   0.000000   0.000000
                                    CHANNELS 3 Zrotation Xrotation Yrotation
                                    JOINT LeftFinger02
                                    {
                                        OFFSET   2.639460   0.000000   0.000000
                                        CHANNELS 3 Zrotation Xrotation Yrotation
                                        End Site
                                        {
                                            OFFSET   2.582190   0.000000   0.000000
                                        }
                                    }
                                }
                            }
                            JOINT LeftFinger1
                            {
                                OFFSET   8.364480   0.000000   3.252850
                                CHANNELS 3 Zrotation Xrotation Yrotation
                                JOINT LeftFinger11
                                {
                                    OFFSET   4.646930   0.000000   0.000000
                                    CHANNELS 3 Zrotation Xrotation Yrotation
                                    JOINT LeftFinger12
                                    {
                                        OFFSET   2.323470   0.000000   0.000000
                                        CHANNELS 3 Zrotation Xrotation Yrotation
                                        End Site
                                        {
                                            OFFSET   2.273050   0.000000   0.000000
                                        }
                                    }
                                }
                            }
                            JOINT LeftFinger2
                            {
                                OFFSET   8.364490   0.000016   1.078090
                                CHANNELS 3 Zrotation Xrotation Yrotation
                                JOINT LeftFinger21
                                {
                                    OFFSET   5.111610   0.000000   0.000000
                                    CHANNELS 3 Zrotation Xrotation Yrotation
                                    JOINT LeftFinger22
                                    {
                                        OFFSET   2.788150   0.000016   0.000000
                                        CHANNELS 3 Zrotation Xrotation Yrotation
                                        End Site
                                        {
                                            OFFSET   2.727660   0.000000   0.000000
                                        }
                                    }
                                }
                            }
                            JOINT LeftFinger3
                            {
                                OFFSET   7.899780   0.000015  -1.078090
                                CHANNELS 3 Zrotation Xrotation Yrotation
                                JOINT LeftFinger31
                                {
                                    OFFSET   4.646930   0.000000   0.000000
                                    CHANNELS 3 Zrotation Xrotation Yrotation
                                    JOINT LeftFinger32
                                    {
                                        OFFSET   2.323470   0.000000   0.000000
                                        CHANNELS 3 Zrotation Xrotation Yrotation
                                        End Site
                                        {
                                            OFFSET   2.273050   0.000000   0.000000
                                        }
                                    }
                                }
                            }
                            JOINT LeftFinger4
                            {
                                OFFSET   7.435090   0.000000  -3.252850
                                CHANNELS 3 Zrotation Xrotation Yrotation
                                JOINT LeftFinger41
                                {
                                    OFFSET   3.717550   0.000000   0.000000
                                    CHANNELS 3 Zrotation Xrotation Yrotation
                                    JOINT LeftFinger42
                                    {
                                        OFFSET   1.858770   0.000000   0.000000
                                        CHANNELS 3 Zrotation Xrotation Yrotation
                                        End Site
                                        {
                                            OFFSET   1.818440   0.000000   0.000000
                                        }
                                    }
                                }
                            }
                        }
                    }
                }
            }
            JOINT RightCollar
            {
                OFFSET  -3.911910  19.017000  -0.467062
                CHANNELS 3 Zrotation Xrotation Yrotation
                JOINT RightShoulder
                {
                    OFFSET -10.383700   0.000014   0.000000
                    CHANNELS 3 Zrotation Xrotation Yrotation
                    JOINT RightElbow
                    {
                        OFFSET -26.662100   0.001225   0.001091
                        CHANNELS 3 Zrotation Xrotation Yrotation
                        JOINT RightWrist
                        {
                            OFFSET -28.869000  -0.000020  -0.000085
                            CHANNELS 3 Zrotation Xrotation Yrotation
                            JOINT RightFinger0
                            {
                                OFFSET  -2.044650  -2.323490   3.252850
                                CHANNELS 3 Zrotation Xrotation Yrotation
                                JOINT RightFinger01
                                {
                                    OFFSET  -3.088130   0.000000   0.000000
                                    CHANNELS 3 Zrotation Xrotation Yrotation
                                    JOINT RightFinger02
                                    {
                                        OFFSET  -2.639460   0.000000   0.000000
                                        CHANNELS 3 Zrotation Xrotation Yrotation
                                        End Site
                                        {
                                            OFFSET  -2.582190   0.000000   0.000000
                                        }
                                    }
                                }
                            }
                            JOINT RightFinger1
                            {
                                OFFSET  -8.364480   0.000000   3.252850
                                CHANNELS 3 Zrotation Xrotation Yrotation
                                JOINT RightFinger11
                                {
                                    OFFSET  -4.646930   0.000000   0.000000
                                    CHANNELS 3 Zrotation Xrotation Yrotation
                                    JOINT RightFinger12
                                    {
                                        OFFSET  -2.323470   0.000000   0.000000
                                        CHANNELS 3 Zrotation Xrotation Yrotation
                                        End Site
                                        {
                                            OFFSET  -2.273050   0.000000   0.000000
                                        }
                                    }
                                }
                            }
                            JOINT RightFinger2
                            {
                                OFFSET  -8.364480   0.000000   1.078090
                                CHANNELS 3 Zrotation Xrotation Yrotation
                                JOINT RightFinger21
                                {
                                    OFFSET  -5.111620   0.000000   0.000000
                                    CHANNELS 3 Zrotation Xrotation Yrotation
                                    JOINT RightFinger22
                                    {
                                        OFFSET  -2.788160   0.000000   0.000000
                                        CHANNELS 3 Zrotation Xrotation Yrotation
                                        End Site
                                        {
                                            OFFSET  -2.727660   0.000000   0.000000
                                        }
                                    }
                                }
                            }
                            JOINT RightFinger3
                            {
                                OFFSET  -7.899780   0.000000  -1.078090
                                CHANNELS 3 Zrotation Xrotation Yrotation
                                JOINT RightFinger31
                                {
                                    OFFSET  -4.646930   0.000000   0.000000
                                    CHANNELS 3 Zrotation Xrotation Yrotation
                                    JOINT RightFinger32
                                    {
                                        OFFSET  -2.323470   0.000000   0.000000
                                        CHANNELS 3 Zrotation Xrotation Yrotation
                                        End Site
                                        {
                                            OFFSET  -2.273050   0.000000   0.000000
                                        }
                                    }
                                }
                            }
                            JOINT RightFinger4
                            {
                                OFFSET  -7.435090   0.000000  -3.252850
                                CHANNELS 3 Zrotation Xrotation Yrotation
                                JOINT RightFinger41
                                {
                                    OFFSET  -3.717550   0.000000   0.000000
                                    CHANNELS 3 Zrotation Xrotation Yrotation
                                    JOINT RightFinger42
                                    {
                                        OFFSET  -1.858760   0.000000   0.000000
                                        CHANNELS 3 Zrotation Xrotation Yrotation
                                        End Site
                                        {
                                            OFFSET  -1.818440   0.000000   0.000000
                                        }
                                    }
                                }
                            }
                        }
                    }
                }
            }
        }
    }
    JOINT LeftHip
    {
        OFFSET   9.783030   0.000000   0.000000
        CHANNELS 3 Zrotation Xrotation Yrotation
        JOINT LeftKnee
        {
            OFFSET   0.000063 -41.789100   0.000608
            CHANNELS 3 Zrotation Xrotation Yrotation
            JOINT LeftAnkle
            {
                OFFSET   0.000048 -41.133200  -0.000184
                CHANNELS 3 Zrotation Xrotation Yrotation
                JOINT LeftToe
                {
                    OFFSET   0.000000  -6.358960  14.674500
                    CHANNELS 3 Zrotation Xrotation Yrotation
                    End Site
                    {
                        OFFSET   0.000000   0.000000   3.913200
                    }
                }
            }
        }
    }
    JOINT RightHip
    {
        OFFSET  -9.783030   0.000000   0.000000
        CHANNELS 3 Zrotation Xrotation Yrotation
        JOINT RightKnee
        {
            OFFSET   0.000071 -41.789100   0.001239
            CHANNELS 3 Zrotation Xrotation Yrotation
            JOINT RightAnkle
            {
                OFFSET   0.000037 -41.133200  -0.000166
                CHANNELS 3 Zrotation Xrotation Yrotation
                JOINT RightToe
                {
                    OFFSET   0.000000  -6.358960  14.674500
                    CHANNELS 3 Zrotation Xrotation Yrotation
                    End Site
                    {
                        OFFSET   0.000000   0.000000   3.913200
                    }
                }
            }
        }
    }
}
MOTION
Frames: 6
Frame Time:   0.016667
  1.161700  89.551800   2.011250  -2.566390  -5.183620  -6.211410   0.967518   2.215370   0.719224   1.909260   4.442400   1.402470   1.165890   0.727755  -0.017169   1.916200   1.473510   0.998110  -3.231790   0.084193   2.765030 -76.440500  18.386400   1.522920  -2.286730  -7.506390 -13.244500  16.397400 -19.622500  10.820800  39.751800  34.217300 -62.638400 -32.388400  -0.009637  -0.005057 -11.197000  -0.000551  -0.009654 -35.568100   6.586190  -9.126210 -29.534700   0.006213   0.001147 -20.666500   0.007950  -0.001544 -29.989900  -0.851755   1.475740 -45.001200  -0.001810  -0.001742 -29.970800   0.003655  -0.006071 -29.192900  -0.831525   1.487230 -43.828700  -0.000154  -0.001001 -29.175200   0.002286  -0.005750 -34.944600  -0.975940   1.396740 -52.422700   0.012886  -0.007652 -34.921400   0.007811  -0.007115   7.173070   3.221370   3.664670  72.121100   5.656730  -4.940230  -1.518610  -4.152200  11.287700 -14.406800 -10.156900  -2.542140 -44.863900  39.205400  80.034700  24.582600   0.003499  -0.001508   7.291310  -0.006153  -0.001027  33.650100   3.017040   4.493640  27.629100   0.000000   0.000000  19.340300   0.000000  -0.005824  28.558500  -2.631690  -4.815120  38.465100  -0.000963  -0.000363  25.617800  -0.000672  -0.000899  26.691000  -5.144140 -10.126300  27.600500  -0.002281  -0.003184  18.381900   0.009614   0.000263  35.625000  -6.674300  -9.195260  54.243300   0.000968   0.000707  36.126100   0.008250   0.012851   2.094360   8.676100   4.454990   1.108310   0.218592   7.624780  -2.176180  -3.932500   3.070650   0.000000   0.000000  -0.000000   1.287020   7.338830  -4.422310   0.090558   0.659081  -6.401610  -1.199710  -3.833540   1.492950  -0.000000   0.000000  -0.000000
  1.161690  89.551800   2.011380  -2.565180  -5.183570  -6.198330   0.967523   2.220700   0.716643   1.909320   4.453020   1.397210   1.177380   0.727721  -0.017159   1.935330   1.473340   0.980080  -3.227160   0.076288   2.763540 -76.433700  18.397200   1.522810  -2.289190  -7.523880 -13.232800  16.394900 -19.629800  10.827000  39.751200  34.233600 -62.659700 -32.388400  -0.009640  -0.005064 -11.197000  -0.000549  -0.009650 -35.567300   6.590730  -9.127000 -29.533600   0.006213   0.001151 -20.666700   0.007950  -0.001540 -29.987800  -0.848953   1.470910 -44.998000  -0.001809  -0.001745 -29.968700   0.003656  -0.006071 -29.193100  -0.828789   1.482360 -43.825000  -0.000153  -0.000998 -29.175200   0.002283  -0.005751 -34.940600  -0.972723   1.392170 -52.421500   0.012888  -0.007650 -34.917400   0.007809  -0.007113   7.175640   3.209940   3.664640  72.121500   5.650530  -4.949110  -1.513170  -4.152190  11.287700 -14.419700 -10.170700  -2.542170 -44.866200  39.223100  80.051400  24.599000   0.003503  -0.001521   7.299500  -0.006156  -0.001022  33.657800   3.017020   4.493160  27.635400   0.000000   0.000000  19.344800  -0.000027  -0.005823  28.559000  -2.631600  -4.823090  38.480200  -0.000964  -0.000365  25.627800  -0.000673  -0.000898  26.694300  -5.144150 -10.125400  27.614500  -0.002281  -0.003185  18.391200   0.009614   0.000265  35.631600  -6.674230  -9.195470  54.253300   0.000967   0.000710  36.132700   0.008251   0.012853   2.095460   8.660190   4.454780   1.106570   0.241351   7.613710  -2.178210  -3.945160   3.066700  -0.000000   0.000000   0.000000   1.287100   7.340030  -4.422390   0.094660   0.652606  -6.409160  -1.199630  -3.833780   1.493140  -0.000000   0.000000   0.000000
  1.161670  89.551800   2.011590  -2.563300  -5.183530  -6.177960   0.967502   2.230040   0.712868   1.909320   4.471660   1.389490   1.194890   0.727603  -0.017149   1.963810   1.473070   0.949117  -3.220330   0.064973   2.757750 -76.418500  18.414800   1.522760  -2.292950  -7.549480 -13.216500  16.388700 -19.637000  10.833200  39.752400  34.257000 -62.690600 -32.388400  -0.009643  -0.005071 -11.196900  -0.000547  -0.009646 -35.565200   6.600000  -9.132110 -29.530500   0.006213   0.001161 -20.666800   0.007950  -0.001530 -29.983700  -0.842095   1.459130 -44.991700  -0.001808  -0.001752 -29.964500   0.003658  -0.006071 -29.193400  -0.822100   1.470490 -43.818400  -0.000149  -0.000993 -29.175200   0.002275  -0.005752 -34.933700  -0.964870   1.381040 -52.418100   0.012893  -0.007645 -34.910400   0.007805  -0.007109   7.181150   3.190010   3.664570  72.122400   5.644280  -4.964060  -1.504070  -4.152190  11.287600 -14.437000 -10.188100  -2.542190 -44.869100  39.251200  80.079800  24.624800   0.003508  -0.001535   7.312380  -0.006160  -0.001014  33.671900   3.016990   4.492680  27.646900   0.000000   0.000000  19.352800  -0.000065  -0.005822  28.560000  -2.631470  -4.831220  38.506800  -0.000967  -0.000369  25.645500  -0.000675  -0.000896  26.700500  -5.144180 -10.123500  27.640500  -0.002283  -0.003189  18.408600   0.009613   0.000267  35.646100  -6.674170  -9.195690  54.275300   0.000963   0.000716  36.147300   0.008252   0.012856   2.096580   8.644280   4.454480   1.104840   0.264112   7.602120  -2.180390  -3.957820   3.060660  -0.000000   0.000000   0.000000   1.287100   7.341230  -4.422470   0.100767   0.643713  -6.422510  -1.199560  -3.834020   1.493320   0.000000   0.000000   0.000000
  1.163500  89.551800   2.011740  -2.562000  -5.183560  -6.164000   0.967446   2.238540   0.710982   1.909180   4.488620   1.385600   1.206690   0.727301  -0.017160   1.981840   1.472790   0.920535  -3.216700   0.059240   2.744970 -76.397900  18.430900   1.523580  -2.301160  -7.564400 -13.209900  16.372100 -19.612000  10.822700  39.760500  34.270200 -62.707000 -32.383900  -0.009640  -0.005062 -11.196900  -0.000550  -0.009648 -35.556600   6.614310  -9.153490 -29.523800   0.006212   0.001174 -20.665400   0.007941  -0.001514 -29.978000  -0.828675   1.436210 -44.983700  -0.001807  -0.001759 -29.958400   0.003663  -0.006071 -29.193900  -0.809022   1.447370 -43.811700  -0.000144  -0.000989 -29.175100   0.002260  -0.005751 -34.926300  -0.949541   1.359340 -52.410600   0.012898  -0.007636 -34.902600   0.007800  -0.007106   7.189380   3.171230   3.656650  72.119900   5.660800  -4.976980  -1.495610  -4.158040  11.287100 -14.442600 -10.192200  -2.542110 -44.869800  39.273100  80.110200  24.641500   0.003510  -0.001535   7.320730  -0.006164  -0.001008  33.689200   3.016950   4.496180  27.661100   0.000000   0.000000  19.362700  -0.000085  -0.005823  28.561200  -2.631370  -4.831410  38.535800  -0.000971  -0.000375  25.664800  -0.000679  -0.000892  26.707900  -5.144230 -10.120900  27.670500  -0.002289  -0.003194  18.428500   0.009614   0.000268  35.668100  -6.674210  -9.193930  54.308100   0.000956   0.000723  36.169200   0.008250   0.012856   2.096250   8.656500   4.450530   1.099970   0.231903   7.601600  -2.179190  -3.942830   3.056290   0.000000   0.000000  -0.000000   1.286440   7.339670  -4.422450   0.104789   0.641557  -6.436460  -1.200270  -3.828560   1.492080   0.000000   0.000000   0.000000
  1.166800  89.551800   2.011870  -2.560980  -5.183630  -6.153030   0.967308   2.247560   0.709680   1.908880   4.506630   1.382880   1.213970   0.727082  -0.017171   1.990970   1.472630   0.894645  -3.214240   0.056916   2.730680 -76.375000  18.440300   1.524980  -2.312890  -7.571210 -13.207800  16.358000 -19.587100  10.808900  39.766400  34.276600 -62.713400 -32.379400  -0.009638  -0.005045 -11.196800  -0.000554  -0.009650 -35.546900   6.623890  -9.170540 -29.518900   0.006211   0.001190 -20.663300   0.007927  -0.001493 -29.974200  -0.819312   1.420230 -44.976500  -0.001805  -0.001769 -29.954400   0.003670  -0.006071 -29.194000  -0.799897   1.431250 -43.806000  -0.000136  -0.000984 -29.174800   0.002241  -0.005749 -34.921800  -0.938848   1.344210 -52.405300   0.012905  -0.007624 -34.897700   0.007794  -0.007103   7.197650   3.153470   3.644520  72.114600   5.684060  -4.989050  -1.487050  -4.163900  11.286600 -14.443500 -10.192800  -2.542060 -44.868900  39.289100  80.127400  24.657600   0.003513  -0.001535   7.328790  -0.006168  -0.001000  33.700100   3.016920   4.502330  27.670100   0.000000  -0.000000  19.369000  -0.000093  -0.005829  28.562400  -2.631310  -4.831430  38.557200  -0.000978  -0.000381  25.679100  -0.000685  -0.000887  26.714000  -5.144270 -10.118600  27.697100  -0.002296  -0.003201  18.446200   0.009616   0.000269  35.689100  -6.674370  -9.191450  54.339200   0.000947   0.000732  36.189900   0.008246   0.012856   2.096330   8.668750   4.444410   1.094920   0.199694   7.601400  -2.177850  -3.927820   3.053890   0.000000   0.000000   0.000000   1.285170   7.338110  -4.422420   0.106608   0.639733  -6.448010  -1.201390  -3.820180   1.489300  -0.000000   0.000000   0.000000
  1.169940  89.551800   2.011970  -2.560510  -5.185500  -6.146080   0.966874   2.256600   0.708680   1.907910   4.524680   1.380740   1.215710   0.727158  -0.017170   1.991670   1.472750   0.875800  -3.213490   0.060461   2.719790 -76.353100  18.433500   1.526810  -2.321090  -7.556810 -13.209100  16.359500 -19.587900  10.804200  39.756200  34.254200 -62.681400 -32.380400  -0.009640  -0.005027 -11.196800  -0.000554  -0.009644 -35.543800   6.617400  -9.162280 -29.518800   0.006218   0.001211 -20.662300   0.007917  -0.001466 -29.973900  -0.824414   1.429040 -44.974300  -0.001803  -0.001784 -29.954500   0.003679  -0.006071 -29.193400  -0.804873   1.440140 -43.803900  -0.000129  -0.000975 -29.174400   0.002218  -0.005751 -34.921700  -0.944765   1.352500 -52.409300   0.012914  -0.007612 -34.897900   0.007785  -0.007094   7.201850   3.141540   3.636070  72.109700   5.694240  -4.998010  -1.478670  -4.162510  11.292200 -14.436400 -10.187600  -2.542060 -44.865000  39.290300  80.112100  24.674700   0.003522  -0.001541   7.337360  -0.006170  -0.000989  33.697800   3.017340   4.509410  27.668400  -0.000029  -0.000000  19.367800  -0.000080  -0.005844  28.563700  -2.631370  -4.826270  38.561000  -0.000988  -0.000387  25.681700  -0.000693  -0.000885  26.715600  -5.144300 -10.117500  27.706800  -0.002306  -0.003208  18.452600   0.009619   0.000268  35.697500  -6.675250  -9.190520  54.351900   0.000936   0.000744  36.198300   0.008244   0.012858   2.097990   8.661400   4.439330   1.092190   0.219268   7.600910  -2.177610  -3.938750   3.053790   0.000000   0.000000   0.000000   1.283610   7.342160  -4.422240   0.105765   0.632336  -6.451970  -1.202300  -3.814000   1.484510  -0.000000   0.000000  -0.000000
